<svg width="121" height="150" viewBox="0 0 121 150" fill="none" xmlns="http://www.w3.org/2000/svg">
<path fill-rule="evenodd" clip-rule="evenodd" d="M33.1818 12.26C27.5458 12.286 22.14 14.6297 18.1057 18.7962C14.0714 22.9627 11.7244 28.6259 11.5603 34.59V115.29C11.5064 118.196 11.994 121.084 12.9951 123.791C13.9963 126.497 15.4914 128.968 17.395 131.062C19.2986 133.156 21.5733 134.833 24.0892 135.996C26.6052 137.159 29.3129 137.785 32.0577 137.84H89.479C95.0683 137.746 100.399 135.33 104.321 131.114C108.244 126.897 110.445 121.218 110.449 115.3V48.3L77.8323 12.3H33.1818V12.26ZM31.9633 149C23.6239 148.858 15.6789 145.217 9.8732 138.878C4.06754 132.539 0.876072 124.019 0.999806 115.19V34.45C1.21801 25.555 4.69652 17.0989 10.6993 10.8709C16.7021 4.64282 24.7582 1.13154 33.1629 1.08H80.0804C80.7869 1.08453 81.4853 1.2391 82.1343 1.53454C82.7833 1.82998 83.3697 2.2603 83.8587 2.8L119.507 42.13C120.443 43.1746 120.964 44.5602 120.962 46V115.29C120.948 124.15 117.646 132.649 111.767 138.955C105.888 145.261 97.9038 148.869 89.5357 149H31.9633Z" fill="white"/>
<path fill-rule="evenodd" clip-rule="evenodd" d="M115.701 53H96.318C90.1272 52.9789 84.1957 50.3653 79.819 45.7299C75.4423 41.0945 72.9759 34.8141 72.9584 28.26V6.59001C72.9283 5.83669 73.0425 5.08471 73.294 4.37931C73.5456 3.67392 73.9293 3.02968 74.4221 2.48537C74.915 1.94107 75.5067 1.50794 76.1618 1.21205C76.8169 0.91616 77.5217 0.763626 78.2339 0.763626C78.9462 0.763626 79.651 0.91616 80.3061 1.21205C80.9611 1.50794 81.5529 1.94107 82.0458 2.48537C82.5386 3.02968 82.9223 3.67392 83.1739 4.37931C83.4254 5.08471 83.5396 5.83669 83.5094 6.59001V28.26C83.5169 31.8593 84.8689 35.3094 87.2703 37.8574C89.6717 40.4053 92.9276 41.8442 96.3275 41.86H115.701C117.061 41.921 118.347 42.536 119.289 43.5768C120.232 44.6175 120.758 46.0034 120.758 47.445C120.758 48.8866 120.232 50.2725 119.289 51.3133C118.347 52.354 117.061 52.969 115.701 53.03V53Z" fill="white"/>
<path fill-rule="evenodd" clip-rule="evenodd" d="M76.9635 87.9H42.4861C41.0857 87.9 39.7427 87.3111 38.7525 86.2627C37.7622 85.2144 37.2059 83.7926 37.2059 82.31C37.2059 80.8274 37.7622 79.4056 38.7525 78.3573C39.7427 77.3089 41.0857 76.72 42.4861 76.72H76.9635C78.3639 76.72 79.7069 77.3089 80.6972 78.3573C81.6874 79.4056 82.2437 80.8274 82.2437 82.31C82.2437 83.7926 81.6874 85.2144 80.6972 86.2627C79.7069 87.3111 78.3639 87.9 76.9635 87.9V87.9Z" fill="white"/>
<path fill-rule="evenodd" clip-rule="evenodd" d="M59.7248 106.15C58.326 106.15 56.9844 105.562 55.9945 104.516C55.0045 103.47 54.4471 102.051 54.4446 100.57V64.06C54.4446 62.5774 55.0009 61.1556 55.9911 60.1073C56.9814 59.0589 58.3244 58.47 59.7248 58.47C61.1252 58.47 62.4683 59.0589 63.4585 60.1073C64.4487 61.1556 65.005 62.5774 65.005 64.06V100.57C65.005 101.304 64.8684 102.03 64.6029 102.708C64.3374 103.385 63.9484 104.001 63.4579 104.519C62.9675 105.037 62.3853 105.448 61.7447 105.728C61.1042 106.008 60.4178 106.151 59.7248 106.15V106.15Z" fill="white"/>
</svg>
