<svg width="121" height="120" viewBox="0 0 121 120" fill="none" xmlns="http://www.w3.org/2000/svg">
<path fill-rule="evenodd" clip-rule="evenodd" d="M47.2605 84.6071C21.8784 84.6071 9.00161 89.0151 9.00161 97.6938C9.00161 106.372 21.9187 110.91 47.2605 110.91C72.6023 110.91 85.5274 106.502 85.5274 97.8229C85.5274 89.1442 72.6588 84.6071 47.2605 84.6071ZM47.2605 120C35.5705 120 0 120 0 97.6857C0 77.8095 26.9726 75.5086 47.2605 75.5086C58.9505 75.5086 94.521 75.5086 94.521 97.8229C94.521 117.707 67.5565 120 47.2605 120Z" fill="white"/>
<path fill-rule="evenodd" clip-rule="evenodd" d="M47.2605 9.09043C42.7172 9.1603 38.2939 10.5599 34.5374 13.1162C30.7808 15.6725 27.8556 19.2736 26.1233 23.4743C24.391 27.6749 23.9275 32.2911 24.7901 36.7524C25.6526 41.2136 27.8035 45.3243 30.9769 48.5764C33.0798 50.7283 35.5912 52.4387 38.3638 53.6074C41.1364 54.776 44.1144 55.3794 47.1233 55.3821L47.2847 59.9354V55.3821C53.4234 55.3821 59.3106 52.9436 63.6513 48.6029C67.992 44.2622 70.4306 38.3749 70.4306 32.2363C70.4306 26.0976 67.992 20.2104 63.6513 15.8697C59.3106 11.529 53.4234 9.09043 47.2847 9.09043H47.2605ZM47.2605 64.4806H47.0748C42.8852 64.4731 38.7393 63.6295 34.8799 61.9992C31.0205 60.3689 27.5253 57.9848 24.599 54.9865C18.6181 48.9243 15.2876 40.7361 15.3391 32.2201C15.4155 25.9266 17.3517 19.7962 20.904 14.6005C24.4563 9.40477 29.466 5.37577 35.3027 3.02048C41.1394 0.665203 47.5424 0.0888718 53.7059 1.36401C59.8694 2.63915 65.518 5.70879 69.941 10.1867C74.3641 14.6646 77.3639 20.3506 78.5629 26.5293C79.762 32.7081 79.1068 39.1034 76.6798 44.9107C74.2527 50.7179 70.1623 55.6776 64.9232 59.1656C59.684 62.6536 53.5303 64.5141 47.2363 64.5129L47.2605 64.4806Z" fill="white"/>
<path fill-rule="evenodd" clip-rule="evenodd" d="M103.224 69.2923C102.024 69.2837 100.877 68.7995 100.034 67.9458C99.1906 67.0921 98.7207 65.9388 98.7271 64.739V40.4306C98.7271 39.238 99.2009 38.0942 100.044 37.2509C100.887 36.4076 102.031 35.9338 103.224 35.9338C104.417 35.9338 105.56 36.4076 106.404 37.2509C107.247 38.0942 107.721 39.238 107.721 40.4306V64.739C107.727 65.9388 107.257 67.0921 106.414 67.9458C105.571 68.7995 104.424 69.2837 103.224 69.2923Z" fill="white"/>
<path fill-rule="evenodd" clip-rule="evenodd" d="M115.503 57.126H90.9607C89.7552 57.126 88.5991 56.6471 87.7468 55.7947C86.8944 54.9423 86.4155 53.7862 86.4155 52.5807C86.4155 51.3753 86.8944 50.2192 87.7468 49.3668C88.5991 48.5144 89.7552 48.0355 90.9607 48.0355H115.503C116.709 48.0355 117.865 48.5144 118.717 49.3668C119.57 50.2192 120.048 51.3753 120.048 52.5807C120.048 53.7862 119.57 54.9423 118.717 55.7947C117.865 56.6471 116.709 57.126 115.503 57.126V57.126Z" fill="white"/>
</svg>
