<svg width="121" height="121" viewBox="0 0 121 121" fill="none" xmlns="http://www.w3.org/2000/svg">
<path fill-rule="evenodd" clip-rule="evenodd" d="M67.4837 86.1992C67.4915 87.7907 66.8667 89.32 65.747 90.4508C64.6272 91.5816 63.1041 92.2213 61.5126 92.2291C59.9212 92.2369 58.3919 91.6122 57.2611 90.4924C56.1303 89.3726 55.4906 87.8495 55.4828 86.2581V86.1992C55.4828 84.6078 56.115 83.0816 57.2403 81.9563C58.3656 80.831 59.8918 80.1988 61.4832 80.1988C63.0746 80.1988 64.6009 80.831 65.7262 81.9563C66.8515 83.0816 67.4837 84.6078 67.4837 86.1992V86.1992Z" fill="white"/>
<path fill-rule="evenodd" clip-rule="evenodd" d="M67.4837 61.5084C67.4837 63.0999 66.8515 64.6261 65.7262 65.7514C64.6009 66.8767 63.0746 67.5089 61.4832 67.5089C59.8918 67.5089 58.3656 66.8767 57.2403 65.7514C56.115 64.6261 55.4828 63.0999 55.4828 61.5084C55.4828 59.917 56.115 58.3908 57.2403 57.2655C58.3656 56.1402 59.8918 55.508 61.4832 55.508C63.0746 55.508 64.6009 56.1402 65.7262 57.2655C66.8515 58.3908 67.4837 59.917 67.4837 61.5084Z" fill="white"/>
<path fill-rule="evenodd" clip-rule="evenodd" d="M67.4837 38.1371C67.4903 39.7285 66.8646 41.2574 65.744 42.3874C64.6234 43.5174 63.0999 44.156 61.5084 44.1627C59.917 44.1694 58.3882 43.5436 57.2581 42.423C56.1281 41.3025 55.4895 39.7789 55.4828 38.1875V38.1371C55.4828 36.5457 56.115 35.0194 57.2403 33.8941C58.3656 32.7688 59.8918 32.1366 61.4832 32.1366C63.0746 32.1366 64.6009 32.7688 65.7262 33.8941C66.8515 35.0194 67.4837 36.5457 67.4837 38.1371V38.1371Z" fill="white"/>
<path fill-rule="evenodd" clip-rule="evenodd" d="M61.0042 10.0006C50.9163 9.99896 41.0545 12.9889 32.6659 18.5922C24.2773 24.1955 17.7387 32.1606 13.8771 41.4802C10.0154 50.7997 9.00419 61.0551 10.9712 70.9494C12.9383 80.8436 17.7952 89.9324 24.9279 97.0662C32.0605 104.2 41.1485 109.058 51.0424 111.027C60.9364 112.996 71.1919 111.986 80.5121 108.126C89.8323 104.266 97.7984 97.7288 103.403 89.3411C109.008 80.9535 111.999 71.0921 111.999 61.0042C111.986 47.4828 106.609 34.5188 97.049 24.9569C87.4887 15.395 74.5257 10.0162 61.0042 10.0006V10.0006ZM61.0042 121C49.1358 121.002 37.5334 117.484 27.6645 110.891C17.7956 104.298 10.1034 94.927 5.56076 83.9623C1.01814 72.9976 -0.170849 60.9321 2.14416 49.2916C4.45917 37.6512 10.1742 26.9587 18.5664 18.5664C26.9587 10.1742 37.6512 4.45915 49.2916 2.14414C60.9321 -0.170865 72.9976 1.01813 83.9623 5.56075C94.927 10.1034 104.298 17.7956 110.891 27.6645C117.484 37.5334 121.002 49.1358 121 61.0042C120.98 76.9099 114.653 92.1585 103.406 103.406C92.1585 114.653 76.9099 120.98 61.0042 121Z" fill="white"/>
</svg>
