<svg width="121" height="121" viewBox="0 0 121 121" fill="none" xmlns="http://www.w3.org/2000/svg">
<path fill-rule="evenodd" clip-rule="evenodd" d="M54.1897 72.7493L76.6965 109.26C77.0071 109.797 77.4733 110.227 78.0334 110.494C78.5936 110.76 79.2214 110.85 79.8338 110.752C80.4556 110.682 81.0422 110.428 81.5174 110.021C81.9925 109.614 82.3343 109.073 82.4982 108.469L110.689 13.4223C110.859 12.8592 110.873 12.2603 110.729 11.6899C110.585 11.1195 110.288 10.5992 109.87 10.1849C109.466 9.77744 108.96 9.48701 108.404 9.34449C107.849 9.20198 107.265 9.21273 106.715 9.37558L11.5495 37.2113C10.948 37.3797 10.4101 37.7227 10.0038 38.197C9.59746 38.6714 9.34103 39.2556 9.26696 39.8757C9.17021 40.4973 9.25929 41.1336 9.52301 41.7048C9.78673 42.2759 10.2133 42.7563 10.7492 43.0858L47.6786 66.1746L80.3158 33.201C81.1866 32.3779 82.3431 31.9255 83.5412 31.939C84.7393 31.9526 85.8853 32.4311 86.7372 33.2736C87.5892 34.1161 88.0805 35.2567 88.1073 36.4546C88.1342 37.6525 87.6947 38.814 86.8814 39.6939L54.1897 72.7493ZM79.3609 120.036C77.2446 120.039 75.1633 119.496 73.3185 118.459C71.4736 117.422 69.9278 115.926 68.8305 114.116L44.9778 75.3683L5.85684 50.9245C3.82046 49.6472 2.19609 47.8093 1.17881 45.6313C0.161517 43.4534 -0.20544 41.0281 0.122003 38.6467C0.449447 36.2653 1.45737 34.029 3.02473 32.2064C4.59208 30.3839 6.65224 29.0525 8.95778 28.3722L104.078 0.500164C106.227 -0.128453 108.507 -0.165082 110.675 0.394143C112.844 0.953368 114.822 2.0877 116.399 3.67743C117.977 5.26715 119.096 7.25329 119.639 9.42622C120.181 11.5992 120.127 13.8783 119.482 16.0231L91.3373 111.07C90.6751 113.384 89.3487 115.454 87.5222 117.021C85.6956 118.589 83.4493 119.587 81.0614 119.891C80.4983 119.975 79.9303 120.024 79.3609 120.036V120.036Z" fill="white"/>
</svg>
