<svg width="120" height="120" viewBox="0 0 120 120" fill="none" xmlns="http://www.w3.org/2000/svg">
<path fill-rule="evenodd" clip-rule="evenodd" d="M54.4506 120H25.9001C19.0308 119.992 12.4456 117.363 7.58979 112.692C2.73401 108.021 0.00438233 101.689 0 95.0848L0 32.5699C0.0065704 25.9667 2.7369 19.6355 7.59221 14.9648C12.4475 10.2941 19.0314 7.66523 25.9001 7.65469H54.3843C61.2623 7.65258 67.8598 10.2756 72.7272 14.9474C77.5946 19.6193 80.3336 25.9577 80.3424 32.5699V37.8093C80.2932 38.8958 79.8097 39.9222 78.9926 40.6743C78.1755 41.4264 77.0879 41.8463 75.9567 41.8463C74.8254 41.8463 73.7378 41.4264 72.9207 40.6743C72.1036 39.9222 71.6201 38.8958 71.571 37.8093V32.5699C71.5688 30.4022 71.1225 28.2562 70.2576 26.2543C69.3927 24.2524 68.1262 22.4339 66.5302 20.9026C64.9343 19.3713 63.0403 18.1572 60.9563 17.3296C58.8723 16.502 56.6391 16.0771 54.3843 16.0792H25.9001C21.3549 16.0876 16.9986 17.8282 13.7862 20.9195C10.5739 24.0107 8.76749 28.2003 8.76311 32.5699V95.0848C8.76749 99.4544 10.5739 103.644 13.7862 106.735C16.9986 109.826 21.3549 111.567 25.9001 111.575H54.4506C58.9804 111.569 63.3228 109.836 66.5258 106.757C69.7289 103.678 71.5313 99.5033 71.5378 95.1485V89.8533C71.587 88.7668 72.0705 87.7405 72.8876 86.9884C73.7047 86.2362 74.7923 85.8164 75.9235 85.8164C77.0548 85.8164 78.1424 86.2362 78.9595 86.9884C79.7766 87.7405 80.2601 88.7668 80.3092 89.8533V95.1485C80.3005 101.738 77.573 108.056 72.7252 112.715C67.8774 117.374 61.3053 119.994 54.4506 120V120Z" fill="white"/>
<path fill-rule="evenodd" clip-rule="evenodd" d="M115.618 68.0436H45.2568C44.1266 67.9964 43.059 67.5315 42.2766 66.746C41.4943 65.9605 41.0576 64.9149 41.0576 63.8274C41.0576 62.7398 41.4943 61.6943 42.2766 60.9087C43.059 60.1232 44.1266 59.6583 45.2568 59.6111H115.66C116.79 59.6583 117.858 60.1232 118.64 60.9087C119.422 61.6943 119.859 62.7398 119.859 63.8274C119.859 64.9149 119.422 65.9605 118.64 66.746C117.858 67.5315 116.79 67.9964 115.66 68.0436H115.618Z" fill="white"/>
<path fill-rule="evenodd" clip-rule="evenodd" d="M98.5063 84.4228C97.6474 84.4128 96.8104 84.1607 96.099 83.6978C95.3876 83.2349 94.8332 82.5816 94.5043 81.8187C94.1754 81.0558 94.0866 80.2169 94.2488 79.4059C94.411 78.595 94.8171 77.8476 95.4169 77.2564L109.406 63.8552L95.4169 50.4381C94.6485 49.64 94.2309 48.5871 94.2516 47.4997C94.2723 46.4124 94.7297 45.3749 95.528 44.6043C96.3263 43.8338 97.4037 43.3899 98.5346 43.3656C99.6656 43.3414 100.763 43.7386 101.596 44.4741L118.708 60.8453C119.117 61.2361 119.441 61.7007 119.663 62.2125C119.884 62.7242 119.998 63.2731 119.998 63.8273C119.998 64.3816 119.884 64.9305 119.663 65.4422C119.441 65.954 119.117 66.4186 118.708 66.8094L101.596 83.1886C101.191 83.5799 100.709 83.8903 100.179 84.1021C99.649 84.314 99.0805 84.4229 98.5063 84.4228V84.4228Z" fill="white"/>
</svg>
