<svg width="121" height="120" viewBox="0 0 121 120" fill="none" xmlns="http://www.w3.org/2000/svg">
<path fill-rule="evenodd" clip-rule="evenodd" d="M33.3752 89.4131C34.8075 89.4121 36.2345 89.5861 37.6245 89.9311C41.768 90.9421 45.3573 93.5217 47.6367 97.1265C49.0518 99.3397 49.8174 101.906 49.8463 104.532C49.8756 105.454 50.0863 106.36 50.4664 107.2C50.8465 108.04 51.3885 108.796 52.0614 109.426C52.7342 110.056 53.5248 110.548 54.3877 110.872C55.2507 111.196 56.1691 111.346 57.0903 111.315H64.8847C68.8588 111.315 72.1126 108.32 72.1288 104.621C72.1308 102.566 72.564 100.533 73.4005 98.6551C74.2371 96.7772 75.4582 95.0956 76.9851 93.719C80.181 90.7629 84.3926 89.1513 88.7455 89.2188C91.5283 89.2746 94.2602 89.9756 96.7261 91.2666C98.3817 92.1632 100.312 92.4113 102.14 91.9624C103.969 91.5135 105.565 90.3998 106.617 88.8384L110.753 82.428C111.21 81.6825 111.509 80.8503 111.628 79.9838C111.748 79.1173 111.687 78.2353 111.449 77.3936C111.188 76.5299 110.757 75.727 110.182 75.0321C109.606 74.3371 108.898 73.7641 108.098 73.3467C106.236 72.3863 104.588 71.0574 103.255 69.4406C101.922 67.8238 100.932 65.9529 100.344 63.9416C99.7934 61.9821 99.6594 59.929 99.9508 57.9145C100.242 55.9001 100.952 53.9691 102.036 52.2459C103.52 49.8777 105.603 47.9429 108.074 46.6368C108.869 46.2327 109.572 45.6687 110.139 44.9801C110.706 44.2915 111.124 43.4932 111.368 42.6352C111.612 41.7773 111.676 40.8782 111.557 39.9943C111.437 39.1104 111.135 38.2609 110.672 37.4988C110.586 37.3712 110.513 37.2357 110.453 37.0942L106.803 31.2099C105.764 29.6406 104.176 28.5165 102.35 28.0582C100.525 27.6 98.5937 27.8407 96.9365 28.7332C93.1244 30.8124 88.6722 31.3899 84.4558 30.3519C80.288 29.3922 76.6636 26.8345 74.3627 23.2293C72.9313 21.0073 72.1569 18.426 72.1288 15.7829C72.1662 14.8415 72.0029 13.9029 71.6499 13.0293C71.2968 12.1558 70.762 11.3673 70.081 10.7162C68.6718 9.40049 66.8127 8.67365 64.8847 8.6846H57.0903C55.2034 8.67343 53.3819 9.37599 51.9912 10.6514C51.3345 11.251 50.8102 11.9812 50.452 12.7952C50.0938 13.6091 49.9096 14.489 49.9111 15.3782C49.7816 23.8687 42.3433 30.6838 33.3752 30.6838C30.5448 30.6698 27.7627 29.9493 25.2814 28.5875C23.624 27.7179 21.7028 27.4948 19.8902 27.9614C18.0777 28.428 16.503 29.551 15.4716 31.1128L11.2627 37.5879C10.8157 38.3522 10.5303 39.2001 10.4239 40.0791C10.3176 40.9581 10.3927 41.8496 10.6445 42.6985C10.8964 43.5473 11.3197 44.3355 11.8882 45.0143C12.4567 45.6931 13.1584 46.2481 13.9499 46.6449C16.4369 47.8791 18.5298 49.7832 19.993 52.1427C21.4562 54.5023 22.2314 57.2235 22.2314 59.9999C22.2314 62.7762 21.4562 65.4974 19.993 67.857C18.5298 70.2165 16.4369 72.1206 13.9499 73.3548C13.1556 73.7576 12.453 74.3199 11.8859 75.0066C11.3188 75.6933 10.8995 76.4896 10.6541 77.3457C10.4087 78.2019 10.3426 79.0994 10.4599 79.9822C10.5771 80.865 10.8753 81.7142 11.3356 82.4766L15.2611 88.7736C16.2322 90.3917 17.7933 91.5698 19.6156 92.0597C21.4669 92.5429 23.4311 92.3298 25.1357 91.4608C27.6703 90.1065 30.5015 89.4029 33.3752 89.4131V89.4131ZM64.8928 120H57.0903C47.9523 120 40.5141 113.08 40.5141 104.573C40.4881 103.481 40.1634 102.417 39.5752 101.497C38.5864 99.9063 37.015 98.7648 35.1964 98.3163C33.3638 97.8707 31.4315 98.1126 29.7654 98.9962C25.8481 101.016 21.3238 101.52 17.058 100.413C12.9142 99.3515 9.34467 96.7223 7.10248 93.0796L3.20932 86.8392C-1.33945 79.4818 1.372 70.0687 9.24736 65.8355C10.3465 65.3071 11.274 64.479 11.9232 63.4466C12.5724 62.4142 12.9168 61.2194 12.9168 59.9999C12.9168 58.7803 12.5724 57.5855 11.9232 56.5531C11.274 55.5207 10.3465 54.6926 9.24736 54.1642C1.36391 49.8987 -1.33945 40.4693 3.20122 33.1281L7.42623 26.653C11.9102 19.4252 22.0438 16.8594 29.9596 21.0844C31.0041 21.6684 32.1787 21.9802 33.3752 21.991C37.2522 21.991 40.4979 19.0205 40.5626 15.354C40.5701 13.3135 41.0022 11.297 41.8313 9.43254C42.6604 7.56811 43.8684 5.89662 45.3785 4.52434C48.565 1.58168 52.7531 -0.0362378 57.0903 -0.000141172H64.8847C69.2974 -0.0181372 73.5503 1.64946 76.7747 4.66194C78.2953 6.09747 79.4976 7.83639 80.3034 9.76608C81.1093 11.6958 81.501 13.7732 81.4529 15.8639C81.5012 16.914 81.825 17.9328 82.3918 18.8182C83.4005 20.3879 84.979 21.505 86.7949 21.9343C88.634 22.3706 90.5693 22.1172 92.234 21.222C100.198 16.9889 110.34 19.5223 114.897 26.8878L118.774 33.1362C118.871 33.2948 118.958 33.4597 119.033 33.63C123.153 40.9145 120.401 49.9958 112.744 54.1561C111.667 54.7179 110.759 55.5559 110.113 56.5842C109.637 57.3353 109.324 58.178 109.194 59.0578C109.065 59.9377 109.121 60.835 109.361 61.6915C109.62 62.5573 110.051 63.362 110.628 64.0573C111.205 64.7527 111.916 65.3245 112.72 65.7384C114.565 66.7067 116.199 68.0338 117.525 69.6419C118.851 71.25 119.842 73.1067 120.441 75.1031C120.994 77.0632 121.13 79.1175 120.84 81.1334C120.55 83.1493 119.841 85.082 118.758 86.8068L114.63 93.2091C110.081 100.494 99.9394 103.003 92.0559 98.7615C90.9827 98.1998 89.7947 97.8924 88.5837 97.8631V97.8631C86.7341 97.876 84.9549 98.5738 83.5897 99.8218C82.929 100.424 82.4013 101.158 82.0403 101.976C81.6793 102.794 81.4931 103.679 81.4934 104.573C81.4206 113.12 73.9823 120 64.8847 120H64.8928Z" fill="white"/>
<path fill-rule="evenodd" clip-rule="evenodd" d="M61.0162 49.0733C54.5411 49.0733 49.28 53.9782 49.28 60C49.28 66.0219 54.5411 70.9187 61.0162 70.9187C67.4913 70.9187 72.7523 66.0219 72.7523 60C72.7523 53.9782 67.4832 49.0733 61.0162 49.0733ZM61.0162 79.6034C49.4015 79.6034 39.9721 70.8134 39.9721 60C39.9721 49.1866 49.4015 40.3885 61.0162 40.3885C72.6309 40.3885 82.0603 49.1866 82.0603 60C82.0603 70.8134 72.6309 79.6034 61.0162 79.6034Z" fill="white"/>
</svg>
