<svg xmlns="http://www.w3.org/2000/svg" viewBox="0 0 137.05 114.21"><defs><style>.cls-1{fill:#fff;fill-rule:evenodd;}</style></defs><title>log in and sign up right arrow icon</title><g id="Layer_2" data-name="Layer 2"><g id="Layer_1-2" data-name="Layer 1"><path class="cls-1" d="M5.38,50.84a6.33,6.33,0,0,0,.85,12.58h109.5l-39.56,40-.6.7a6.41,6.41,0,0,0,.59,8.24,6.16,6.16,0,0,0,8.81,0l50.16-50.69a6.31,6.31,0,0,0,.81-1,6.39,6.39,0,0,0-.72-8.08L85,1.84l-.7-.61a6.16,6.16,0,0,0-8.11.63,6.39,6.39,0,0,0,0,8.94l39.57,40H6.23Z"/></g></g></svg>