<svg width="138" height="116" viewBox="0 0 138 116" fill="none" xmlns="http://www.w3.org/2000/svg">
<path fill-rule="evenodd" clip-rule="evenodd" d="M5.38 51.84C3.81931 52.0879 2.4078 52.9106 1.42289 54.1464C0.437991 55.3822 -0.0490614 56.9417 0.0574697 58.5183C0.164001 60.095 0.856411 61.5748 1.9986 62.6669C3.14079 63.7589 4.65015 64.3843 6.23 64.42H115.73L76.17 104.42L75.57 105.12C74.681 106.343 74.2526 107.84 74.3605 109.348C74.4685 110.855 75.1059 112.277 76.16 113.36C76.7337 113.947 77.4189 114.413 78.1754 114.732C78.9318 115.05 79.7443 115.214 80.565 115.214C81.3857 115.214 82.1982 115.05 82.9546 114.732C83.7111 114.413 84.3963 113.947 84.97 113.36L135.13 62.67C135.433 62.3651 135.705 62.0301 135.94 61.67C136.774 60.448 137.158 58.9746 137.027 57.5011C136.895 56.0276 136.257 54.6453 135.22 53.59L85 2.84L84.3 2.23C83.1025 1.3316 81.6188 0.900034 80.1262 1.01598C78.6337 1.13192 77.2344 1.78744 76.19 2.86C75.021 4.0542 74.3663 5.65885 74.3663 7.33C74.3663 9.00114 75.021 10.6058 76.19 11.8L115.76 51.8H6.23L5.38 51.84Z" fill="white"/>
</svg>
