<svg width="201" height="203" viewBox="0 0 201 203" fill="none" xmlns="http://www.w3.org/2000/svg">
<path d="M73.7759 81.6424C79.6796 81.6424 84.4655 76.7902 84.4655 70.8047C84.4655 64.8191 79.6796 59.9669 73.7759 59.9669C67.8722 59.9669 63.0863 64.8191 63.0863 70.8047C63.0863 76.7902 67.8722 81.6424 73.7759 81.6424Z" fill="white"/>
<path d="M74.1497 112.989C80.0534 112.989 84.8393 108.136 84.8393 102.151C84.8393 96.1653 80.0534 91.313 74.1497 91.313C68.2459 91.313 63.46 96.1653 63.46 102.151C63.46 108.136 68.2459 112.989 74.1497 112.989Z" fill="white"/>
<path d="M73.7759 144.335C79.6796 144.335 84.4655 139.482 84.4655 133.497C84.4655 127.511 79.6796 122.659 73.7759 122.659C67.8722 122.659 63.0863 127.511 63.0863 133.497C63.0863 139.482 67.8722 144.335 73.7759 144.335Z" fill="white"/>
<path d="M136.866 62.6722L136.861 62.6671C132.353 58.5919 125.439 58.9936 121.42 63.5643L94.8349 93.7948C90.8154 98.3655 91.2115 105.374 95.7198 109.45L95.7254 109.455C100.234 113.53 107.147 113.128 111.166 108.558L137.751 78.3271C141.771 73.7564 141.375 66.7474 136.866 62.6722Z" fill="white"/>
<path d="M136.444 141.723L136.45 141.718C140.987 137.676 141.434 130.67 137.448 126.07L110.406 94.8627C106.42 90.2623 99.5098 89.8092 94.9722 93.8508L94.9666 93.8558C90.429 97.8974 89.9821 104.903 93.9685 109.504L121.01 140.711C124.996 145.311 131.907 145.765 136.444 141.723Z" fill="white"/>
<path d="M162.014 164.047C149.368 176.873 133.142 185.452 115.531 188.624C97.9189 191.796 79.7714 189.407 63.5423 181.782C58.7656 179.834 27.8927 188.504 21.1948 181.721C14.497 174.938 23.0487 143.615 21.1276 138.779C14.4017 124.104 11.7738 107.839 13.5299 91.7551C15.2859 75.6709 21.3586 60.3828 31.0873 47.5539C40.816 34.7249 53.8283 24.8462 68.7087 18.9925C83.5891 13.1388 99.7679 11.534 115.485 14.3529C131.202 17.1718 145.856 24.3063 157.853 34.9805C169.85 45.6546 178.73 59.4596 183.527 74.8938C188.324 90.328 188.855 106.8 185.062 122.519C181.269 138.238 173.298 152.602 162.014 164.047V164.047Z" stroke="white" stroke-width="25" stroke-linecap="round" stroke-linejoin="round"/>
</svg>
