<svg xmlns="http://www.w3.org/2000/svg" viewBox="0 0 359.16 270.58"><defs><style>.cls-1{fill:#fff;fill-rule:evenodd;}</style></defs><title>hide icon</title><g id="Layer_2" data-name="Layer 2"><g id="Layer_1-2" data-name="Layer 1"><path class="cls-1" d="M179.58,97.09c-24.15,0-43.8,17.12-43.8,38.21a33.91,33.91,0,0,0,5.14,17.52l58.76-51.27A48.58,48.58,0,0,0,179.58,97.09ZM312.21,3.36a14.52,14.52,0,0,1,18.58,0,10.46,10.46,0,0,1,0,16.22L47,267.21a14.49,14.49,0,0,1-18.58,0,10.44,10.44,0,0,1,0-16.2l93.31-81.42a55.12,55.12,0,0,1-12.18-34.29c0-33.71,31.43-61.13,70.08-61.13a77.42,77.42,0,0,1,39.32,10.59L255.44,52.9A153,153,0,0,0,92.07,60.06c-25.91,17.79-48.16,43.73-64.56,75.26A225.69,225.69,0,0,0,52.73,174c4.2,5.15,2.82,12.31-3.09,16A14.44,14.44,0,0,1,42,192.1a13.74,13.74,0,0,1-10.72-4.83A249.07,249.07,0,0,1,1.06,139.82a10.1,10.1,0,0,1,0-9.06C19.42,93.72,45.24,63,75.8,42.06a182.91,182.91,0,0,1,198.55-5.65Zm45.88,127.38a248.19,248.19,0,0,0-34-51.73c-4.38-5.07-12.61-6.08-18.39-2.28s-7,11-2.6,16.06a222.31,222.31,0,0,1,28.55,42.51C298,200,241.45,238.48,179.58,238.48a148.14,148.14,0,0,1-41.41-5.91c-6.92-2-14.33,1.24-16.61,7.25s1.42,12.49,8.29,14.51a178,178,0,0,0,49.73,7.09c74.11,0,140.85-45.46,178.51-121.59A10.17,10.17,0,0,0,358.09,130.74ZM222.52,142.1c-3.2,15.51-17.28,27.82-35.06,30.63-7.14,1.14-11.89,7.11-10.59,13.35,1.15,5.53,6.7,9.4,12.91,9.4a17.17,17.17,0,0,0,2.37-.17c28.52-4.53,51.13-24.27,56.23-49.16,1.29-6.25-3.47-12.2-10.62-13.31S223.79,135.89,222.52,142.1Z"/></g></g></svg>