<svg xmlns="http://www.w3.org/2000/svg" xmlns:xlink="http://www.w3.org/1999/xlink" viewBox="0 0 148.64 148.64"><defs><style>.cls-1{fill:#fff;fill-rule:evenodd;}.cls-2{mask:url(#mask);}</style><mask id="mask" x="0" y="93.53" width="117.08" height="55.11" maskUnits="userSpaceOnUse"><g id="mask0"><path class="cls-1" d="M0,93.53H117.08v55.11H0Z"/></g></mask></defs><title>add friend</title><g id="Layer_2" data-name="Layer 2"><g id="Layer_1-2" data-name="Layer 1"><g class="cls-2"><path class="cls-1" d="M58.54,104.8c-31.44,0-47.39,5.46-47.39,16.21s16,16.37,47.39,16.37,47.4-5.46,47.4-16.21S90,104.8,58.54,104.8Zm0,43.84C44.06,148.64,0,148.64,0,121,0,96.38,33.41,93.53,58.54,93.53c14.48,0,58.54,0,58.54,27.64C117.08,145.8,83.68,148.64,58.54,148.64Z"/></g><path class="cls-1" d="M58.54,11.26A28.8,28.8,0,0,0,38.37,60.17a28,28,0,0,0,20,8.43l.2,5.64V68.6a28.67,28.67,0,0,0,0-57.34Zm0,68.61h-.23A39,39,0,0,1,30.47,68.11,39.81,39.81,0,0,1,19,39.91a39.52,39.52,0,1,1,39.51,40Z"/><path class="cls-1" d="M127.86,85.83a5.61,5.61,0,0,1-5.57-5.64V50.08a5.57,5.57,0,1,1,11.14,0V80.19A5.61,5.61,0,0,1,127.86,85.83Z"/><path class="cls-1" d="M143.07,70.76h-30.4a5.63,5.63,0,0,1,0-11.26h30.4a5.63,5.63,0,0,1,0,11.26Z"/></g></g></svg>