<svg xmlns="http://www.w3.org/2000/svg" viewBox="0 0 127.04 148.01"><defs><style>.cls-1{fill:#fff;fill-rule:evenodd;}</style></defs><title>add attachment</title><g id="Layer_2" data-name="Layer 2"><g id="Layer_1-2" data-name="Layer 1"><path class="cls-1" d="M34.07,11.26A23,23,0,0,0,11.18,33.59v80.7a22.12,22.12,0,0,0,21.7,22.55H93.67a22.56,22.56,0,0,0,22.2-22.54v-67l-34.53-36H34.07ZM32.78,148A33.32,33.32,0,0,1,0,114.19V33.45A34.26,34.26,0,0,1,34.05.08H83.72a5.59,5.59,0,0,1,4,1.72l37.74,39.33A5.61,5.61,0,0,1,127,45v69.29A33.77,33.77,0,0,1,93.73,148Z"/><path class="cls-1" d="M121.43,52H100.91A24.81,24.81,0,0,1,76.18,27.26V5.59a5.59,5.59,0,1,1,11.17,0V27.26a13.63,13.63,0,0,0,13.57,13.6h20.51a5.59,5.59,0,0,1,0,11.17Z"/><path class="cls-1" d="M80.42,86.9H43.92a5.59,5.59,0,0,1,0-11.18h36.5a5.59,5.59,0,1,1,0,11.18Z"/><path class="cls-1" d="M62.17,105.15a5.59,5.59,0,0,1-5.59-5.58V63.06a5.59,5.59,0,0,1,11.18,0V99.57A5.58,5.58,0,0,1,62.17,105.15Z"/></g></g></svg>