<svg xmlns="http://www.w3.org/2000/svg" xmlns:xlink="http://www.w3.org/1999/xlink" viewBox="0 0 146.43 146.43"><defs><style>.cls-1{fill:#fff;fill-rule:evenodd;}.cls-2{mask:url(#mask);}</style><mask id="mask" x="0" y="0" width="146.43" height="146.43" maskUnits="userSpaceOnUse"><g id="mask0"><path class="cls-1" d="M0,0H146.43V146.43H0Z"/></g></mask></defs><title>chats</title><g id="Layer_2" data-name="Layer 2"><g id="Layer_1-2" data-name="Layer 1"><g class="cls-2"><path class="cls-1" d="M34.8,127.22c4,0,7.68,1.5,11.63,3.09A63,63,0,0,0,117.79,28.66a63,63,0,0,0-89.12,0A63.3,63.3,0,0,0,16.05,99.79c1.59,3.94,3.13,7.79,3.13,11.78s-1.37,8-2.57,11.54c-1,2.92-2.5,7.32-1.54,8.28s5.38-.56,8.3-1.56C26.88,128.63,30.86,127.25,34.8,127.22Zm38.26,19.21a73,73,0,0,1-30.69-6.74c-2.89-1.16-5.59-2.25-7.53-2.25-2.24,0-5.24,1.05-8.14,2.05-6,2-13.37,4.6-18.86-.87s-2.94-12.86-.91-18.81c1-2.93,2-6,2-8.24,0-1.88-.9-4.28-2.29-7.73a73.47,73.47,0,0,1,14.78-82.4,73.23,73.23,0,1,1,51.61,125Z"/></g><path class="cls-1" d="M100.12,82.86a6.82,6.82,0,0,1-.06-13.63h.06a6.82,6.82,0,1,1,0,13.63Z"/><path class="cls-1" d="M72.81,82.86a6.82,6.82,0,0,1-.06-13.63h.06a6.82,6.82,0,0,1,0,13.63Z"/><path class="cls-1" d="M45.5,82.86a6.82,6.82,0,0,1-.06-13.63h.06a6.82,6.82,0,0,1,0,13.63Z"/></g></g></svg>