<svg xmlns="http://www.w3.org/2000/svg" xmlns:xlink="http://www.w3.org/1999/xlink" viewBox="0 0 144.88 141.09"><defs><style>.cls-1{fill:#fff;fill-rule:evenodd;}.cls-2{mask:url(#mask);}.cls-3{mask:url(#mask-2);}</style><mask id="mask" x="49.35" y="65.25" width="95.52" height="10.58" maskUnits="userSpaceOnUse"><g id="mask0"><path class="cls-1" d="M49.35,65.25h95.53V75.84H49.35Z"/></g></mask><mask id="mask-2" x="113.64" y="44.69" width="31.24" height="51.71" maskUnits="userSpaceOnUse"><g id="mask1"><path class="cls-1" d="M113.64,44.69h31.24V96.41H113.64Z"/></g></mask></defs><title>logout</title><g id="Layer_2" data-name="Layer 2"><g id="Layer_1-2" data-name="Layer 1"><path class="cls-1" d="M65.74,141.09H31.27A31.31,31.31,0,0,1,0,109.8V31.29A31.32,31.32,0,0,1,31.27,0H65.66A31.33,31.33,0,0,1,97,31.29v6.58a5.3,5.3,0,0,1-10.59,0V31.29A20.73,20.73,0,0,0,65.66,10.58H31.27A20.73,20.73,0,0,0,10.58,31.29V109.8a20.73,20.73,0,0,0,20.69,20.71H65.74a20.66,20.66,0,0,0,20.63-20.63v-6.65a5.3,5.3,0,0,1,10.59,0v6.65A31.25,31.25,0,0,1,65.74,141.09Z"/><g class="cls-2"><path class="cls-1" d="M139.59,75.84H54.64a5.3,5.3,0,0,1,0-10.59h85a5.3,5.3,0,0,1,0,10.59Z"/></g><g class="cls-3"><path class="cls-1" d="M118.93,96.41a5.3,5.3,0,0,1-3.73-9l16.89-16.83L115.2,53.73a5.29,5.29,0,0,1,7.46-7.49L143.32,66.8a5.28,5.28,0,0,1,0,7.49L122.66,94.86A5.26,5.26,0,0,1,118.93,96.41Z"/></g></g></g></svg>