<svg xmlns="http://www.w3.org/2000/svg" viewBox="0 0 142.79 142.79"><defs><style>.cls-1{fill:#fff;fill-rule:evenodd;}</style></defs><title>more options</title><g id="Layer_2" data-name="Layer 2"><g id="Layer_1-2" data-name="Layer 1"><path class="cls-1" d="M79.11,101.38a7.14,7.14,0,0,1-14.28.07v-.07a7.14,7.14,0,0,1,14.28,0Z"/><path class="cls-1" d="M79.11,72A7.14,7.14,0,0,1,64.83,72V72a7.14,7.14,0,0,1,14.28,0Z"/><path class="cls-1" d="M79.11,44.19a7.14,7.14,0,0,1-14.28.06v-.06a7.14,7.14,0,0,1,14.28,0Z"/><path class="cls-1" d="M71.4,10.71A60.69,60.69,0,1,0,132.08,71.4,60.75,60.75,0,0,0,71.4,10.71Zm0,132.08A71.4,71.4,0,1,1,142.79,71.4,71.48,71.48,0,0,1,71.4,142.79Z"/></g></g></svg>