<svg xmlns="http://www.w3.org/2000/svg" xmlns:xlink="http://www.w3.org/1999/xlink" viewBox="0 0 131.96 131.96"><defs><style>.cls-1{fill:#fff;fill-rule:evenodd;}.cls-2{mask:url(#mask);}</style><mask id="mask" x="0" y="0" width="131.96" height="131.96" maskUnits="userSpaceOnUse"><g id="mask0"><path class="cls-1" d="M0,0H132V132H0Z"/></g></mask></defs><title>send</title><g id="Layer_2" data-name="Layer 2"><g id="Layer_1-2" data-name="Layer 1"><g class="cls-2"><path class="cls-1" d="M59.59,80l24.75,40.15a3.37,3.37,0,0,0,3.45,1.64,3.43,3.43,0,0,0,2.93-2.51l31-104.52a3.56,3.56,0,0,0-.9-3.56,3.49,3.49,0,0,0-3.47-.89L12.7,40.92a3.47,3.47,0,0,0-2.51,2.93,3.51,3.51,0,0,0,1.63,3.53L52.43,72.77,88.32,36.51a5.08,5.08,0,0,1,7.22,7.14Zm27.68,52a13.52,13.52,0,0,1-11.58-6.51L49.46,82.88,6.44,56a13.73,13.73,0,0,1,3.41-24.8L114.45.55a13.68,13.68,0,0,1,16.94,17.07L100.44,122.14a13.53,13.53,0,0,1-11.3,9.7A14.79,14.79,0,0,1,87.27,132Z"/></g></g></g></svg>