<svg xmlns="http://www.w3.org/2000/svg" xmlns:xlink="http://www.w3.org/1999/xlink" viewBox="0 0 148.26 148.26"><defs><style>.cls-1{fill:#fff;fill-rule:evenodd;}.cls-2{mask:url(#mask);}</style><mask id="mask" x="0" y="0" width="148.26" height="148.26" maskUnits="userSpaceOnUse"><g id="mask0"><path class="cls-1" d="M0,0H148.26V148.26H0Z"/></g></mask></defs><title>settings</title><g id="Layer_2" data-name="Layer 2"><g id="Layer_1-2" data-name="Layer 1"><g class="cls-2"><path class="cls-1" d="M40,110.47a21.74,21.74,0,0,1,5.25.64A20.34,20.34,0,0,1,57.62,120a17.34,17.34,0,0,1,2.73,9.15,8.66,8.66,0,0,0,8.95,8.38h9.63c4.91,0,8.93-3.7,8.95-8.27a18.16,18.16,0,0,1,6-13.47,20.92,20.92,0,0,1,14.53-5.56,22.22,22.22,0,0,1,9.86,2.53,9.36,9.36,0,0,0,12.22-3l5.11-7.92a7.82,7.82,0,0,0,.86-6.22,8.37,8.37,0,0,0-4.14-5A19.1,19.1,0,0,1,122.74,79a18,18,0,0,1,2.09-14.45,19.63,19.63,0,0,1,7.46-6.93,8,8,0,0,0,3.21-11.29,3,3,0,0,1-.27-.5l-4.51-7.27a9.32,9.32,0,0,0-12.19-3.06,21.48,21.48,0,0,1-15.42,2A20.16,20.16,0,0,1,90.64,28.7a17.33,17.33,0,0,1-2.76-9.2,8.21,8.21,0,0,0-2.53-6.26,9.33,9.33,0,0,0-6.42-2.51H69.3A9.24,9.24,0,0,0,63,13.16,7.89,7.89,0,0,0,60.43,19C60.27,29.49,51.08,37.91,40,37.91a21,21,0,0,1-10-2.59,9.33,9.33,0,0,0-12.12,3.12l-5.2,8A8,8,0,0,0,16,57.63a18.42,18.42,0,0,1,0,33,8,8,0,0,0-3.23,11.27l4.85,7.78A9,9,0,0,0,23,113.74a9.65,9.65,0,0,0,6.82-.74A21.44,21.44,0,0,1,40,110.47Zm38.94,37.79H69.3c-11.29,0-20.48-8.55-20.48-19.06a7.38,7.38,0,0,0-1.16-3.8,8.87,8.87,0,0,0-5.41-3.93,9.52,9.52,0,0,0-6.71.84,22.13,22.13,0,0,1-15.7,1.75A20.38,20.38,0,0,1,7.54,115l-4.81-7.71C-2.89,98.2.46,86.57,10.19,81.34a8,8,0,0,0,0-14.42C.45,61.65-2.89,50,2.72,40.93l5.22-8C13.48,24,26,20.83,35.78,26.05A8.81,8.81,0,0,0,40,27.17c4.79,0,8.8-3.67,8.88-8.2A18.17,18.17,0,0,1,54.83,5.59,21.07,21.07,0,0,1,69.3,0h9.63A21.39,21.39,0,0,1,93.62,5.76,18.45,18.45,0,0,1,99.4,19.6a7.4,7.4,0,0,0,1.16,3.65A8.9,8.9,0,0,0,106,27.1a9.54,9.54,0,0,0,6.72-.88c9.84-5.23,22.37-2.1,28,7l4.79,7.72a5.07,5.07,0,0,1,.32.61c5.09,9,1.69,20.22-7.77,25.36a8.46,8.46,0,0,0-3.25,3,7.84,7.84,0,0,0-.93,6.31,8.3,8.3,0,0,0,4.15,5,19.34,19.34,0,0,1,9.54,11.57,18,18,0,0,1-2.08,14.46l-5.1,7.91c-5.62,9-18.15,12.1-27.89,6.86a9.76,9.76,0,0,0-4.29-1.11h0a9.24,9.24,0,0,0-6.17,2.42,7.94,7.94,0,0,0-2.59,5.87C99.36,139.76,90.17,148.26,78.93,148.26Z"/></g><path class="cls-1" d="M74.15,60.63c-8,0-14.5,6.06-14.5,13.5s6.5,13.49,14.5,13.49,14.5-6.05,14.5-13.49S82.14,60.63,74.15,60.63Zm0,37.72c-14.35,0-26-10.86-26-24.22S59.8,49.9,74.15,49.9s26,10.87,26,24.23S88.5,98.35,74.15,98.35Z"/></g></g></svg>